<?xml version="1.0" encoding="UTF-8" standalone="no"?>
<!-- Created with Inkscape (http://www.inkscape.org/) -->
<svg
   xmlns:svg="http://www.w3.org/2000/svg"
   xmlns="http://www.w3.org/2000/svg"
   version="1.0"
   width="296.09818"
   height="155.93011"
   id="svg3005">
  <defs
     id="defs3007">
    <clipPath
       id="clipPath59">
      <path
         d="M 0,926.955 L 680.28,926.955 L 680.28,0.015 L 0,0.015 L 0,926.955 z"
         id="path61" />
    </clipPath>
    <clipPath
       id="clipPath51">
      <path
         d="M 34.016,892.913 L 646.299,892.913 L 646.299,34.015 L 34.016,34.015 L 34.016,892.913 z"
         id="path53" />
    </clipPath>
    <clipPath
       id="clipPath43">
      <path
         d="M 191.165,849.938 L 471.554,849.938 L 471.554,716.6 L 191.165,716.6 L 191.165,849.938 z"
         id="path45" />
    </clipPath>
    <clipPath
       id="clipPath35">
      <path
         d="M 490.168,935.237 L 225.84,935.237 L 225.84,725.053 L 490.168,725.053 L 490.168,935.237 z"
         id="path37" />
    </clipPath>
  </defs>
  <g
     transform="translate(-142.80805,-177.75846)"
     id="layer1">
    <path
       d="M 302.78849,197.52499 C 302.78849,207.77999 297.08224,214.22999 290.04849,214.22999 C 283.01474,214.22999 277.30849,207.80624 277.30974,197.52499 C 277.31224,184.92249 290.04974,179.38249 290.04974,179.38249 C 290.04974,179.38249 302.78849,184.92249 302.78849,197.52499"
       id="path65"
       style="fill:#c11430;fill-opacity:1;fill-rule:nonzero;stroke:none" />
    <path
       d="M 251.56599,212.42125 C 260.56724,217.3375 263.49099,225.4375 260.11849,231.61 C 256.74724,237.78375 248.37349,239.7125 239.35224,234.7825 C 228.29224,228.73875 229.53724,214.905 229.53724,214.905 C 229.53724,214.905 240.50474,206.38 251.56599,212.42125"
       id="path69"
       style="fill:#fdd704;fill-opacity:1;fill-rule:nonzero;stroke:none" />
    <path
       d="M 340.76973,234.78249 C 331.75098,239.66499 323.36223,237.71749 320.01348,231.53124 C 316.66598,225.34624 319.59723,217.26874 328.64098,212.37624 C 339.72348,206.37749 350.65848,214.94249 350.65848,214.94249 C 350.65848,214.94249 351.85348,228.78249 340.76973,234.78249"
       id="path73"
       style="fill:#183f82;fill-opacity:1;fill-rule:nonzero;stroke:none" />
    <path
       d="M 275.23724,198.1 C 280.44849,206.93375 278.81224,215.3875 272.75224,218.9625 C 266.69474,222.53625 258.51599,219.90375 253.29224,211.04875 C 246.88974,200.1925 255.04599,188.95 255.04599,188.95 C 255.04599,188.95 268.83349,187.24625 275.23724,198.1"
       id="path77"
       style="fill:#f79210;fill-opacity:1;fill-rule:nonzero;stroke:none" />
    <path
       d="M 326.801,211.09 C 321.5685,219.91125 313.371,222.5475 307.321,218.95875 C 301.271,215.37 299.63975,206.935 304.88725,198.0925 C 311.3185,187.25375 325.09975,188.98875 325.09975,188.98875 C 325.09975,188.98875 333.22975,200.25 326.801,211.09"
       id="path81"
       style="fill:#652290;fill-opacity:1;fill-rule:nonzero;stroke:none" />
    <path
       d="M 426.4885,230.96125 L 318.77475,230.96125 C 312.8935,221.27875 302.24725,214.81125 290.091,214.81125 C 277.93475,214.81125 267.28975,221.27875 261.40975,230.96125 L 156.36975,230.96125 C 150.7285,230.96125 147.26975,235.435 148.6835,240.90625 L 161.24975,289.50375 C 162.66475,294.9725 168.4385,299.44875 174.07975,299.44875 L 408.7785,299.44875 C 414.4185,299.44875 420.191,294.9725 421.606,289.50375 L 434.1735,240.90625 C 435.58725,235.435 432.1285,230.96125 426.4885,230.96125"
       id="path85"
       style="fill:#005531;fill-opacity:1;fill-rule:nonzero;stroke:none" />
    <path
       d="M 238.96725,270.62625 C 237.851,274.2925 234.90975,280.32 240.43975,280.32 C 242.42225,280.32 245.19975,279.10875 245.621,274.9875 L 258.80725,274.9875 C 258.02475,280.0325 253.2285,286.305 238.73975,286.20125 C 228.45475,286.12625 222.30225,279.79375 225.701,269.04125 C 228.6685,259.6575 233.62725,252.12625 248.44725,252.18625 C 261.20975,252.23875 265.64725,260.3225 261.081,270.62625 L 238.96725,270.62625 z M 248.8985,265.77875 C 250.1485,263.42375 251.68975,258.455 247.17725,258.455 C 242.98475,258.455 241.76725,262.785 240.9735,265.77875 L 248.8985,265.77875"
       id="path89"
       style="fill:#ffffff;fill-opacity:1;fill-rule:nonzero;stroke:none" />
    <path
       d="M 357.03474,270.62625 C 355.91724,274.2925 352.97974,280.32 358.50724,280.32 C 360.48974,280.32 363.26724,279.10875 363.68974,274.9875 L 376.87474,274.9875 C 376.09474,280.0325 371.29724,286.305 356.80849,286.20125 C 346.52099,286.12625 340.37224,279.79375 343.77099,269.04125 C 346.73599,259.6575 351.69724,252.12625 366.51599,252.18625 C 379.27849,252.23875 383.71599,260.3225 379.14974,270.62625 L 357.03474,270.62625 z M 366.96849,265.77875 C 368.21599,263.42375 369.75849,258.455 365.24599,258.455 C 361.05224,258.455 359.83349,262.785 359.04224,265.77875 L 366.96849,265.77875"
       id="path93"
       style="fill:#ffffff;fill-opacity:1;fill-rule:nonzero;stroke:none" />
    <path
       d="M 274.77224,243.8925 L 287.14849,243.8925 L 282.69849,257.585 L 282.81974,257.585 C 285.62599,255.18 288.82224,253.40125 293.87099,253.4375 C 300.80349,253.4875 303.48349,256.86375 301.21724,264.01875 L 294.61849,284.725 L 282.24099,284.725 L 287.23974,269.06625 C 288.38349,265.4575 290.54099,259.735 286.37474,259.6625 C 281.98599,259.58375 281.15474,263.9575 279.57224,268.94625 L 274.53599,284.725 L 261.68474,284.725 L 274.77224,243.8925"
       id="path97"
       style="fill:#ffffff;fill-opacity:1;fill-rule:nonzero;stroke:none" />
    <path
       d="M 311.26225,253.79374 L 323.7335,253.78124 L 323.0385,256.47124 C 326.386,254.76124 328.85225,252.84249 333.59975,252.89749 C 339.84725,252.97374 343.716,256.24749 341.33475,263.87624 L 334.64975,284.72999 L 322.34475,284.72999 L 327.351,268.74249 C 328.5435,264.61749 331.14725,259.37124 326.23725,259.22124 C 323.11225,259.12624 321.12725,262.34124 319.54475,267.32874 L 313.8185,284.80749 L 301.4385,284.72999 L 311.26225,253.79374"
       id="path101"
       style="fill:#ffffff;fill-opacity:1;fill-rule:nonzero;stroke:none" />
    <path
       d="M 411.53975,259.98875 C 405.59475,259.89875 404.46725,260.61875 402.756,261.745 C 399.8885,263.63375 398.34225,266.205 397.4835,268.545 L 392.7135,284.73125 L 379.876,284.7375 L 389.72725,253.6875 L 402.201,253.675 L 401.901,255.9325 C 408.476,252.51375 411.4935,252.5575 414.01725,252.6475 L 411.53975,259.98875"
       id="path105"
       style="fill:#ffffff;fill-opacity:1;fill-rule:nonzero;stroke:none" />
    <path
       d="M 188.35724,246.99376 L 212.84974,246.99376 C 226.02474,246.95251 224.83224,257.76126 222.82974,266.11126 C 220.83349,274.43751 213.70599,284.73376 201.27349,284.73376 L 176.51474,284.73376 L 188.35724,246.99376 z M 192.16849,278.20376 L 197.33849,278.20376 C 201.38849,278.25751 205.83349,272.90626 207.83224,265.54251 C 209.99849,257.55876 211.13849,253.05376 205.49349,253.05376 L 200.37474,253.05376 L 192.16849,278.20376"
       id="path109"
       style="fill:#ffffff;fill-opacity:1;fill-rule:nonzero;stroke:none" />
    <path
       d="M 204.10975,329.865 C 202.976,330.2725 200.7385,330.94 198.0935,330.94 C 195.1285,330.94 192.68725,330.185 190.7685,328.35375 C 189.08225,326.72625 188.036,324.11 188.036,321.0575 C 188.066,315.21625 192.076,310.94375 198.646,310.94375 C 200.91225,310.94375 202.686,311.4375 203.5285,311.84375 L 202.9185,313.9075 C 201.87225,313.44375 200.5635,313.065 198.58725,313.065 C 193.821,313.065 190.70975,316.03 190.70975,320.94125 C 190.70975,325.9125 193.70475,328.8475 198.26725,328.8475 C 199.92475,328.8475 201.05725,328.615 201.63975,328.325 L 201.63975,322.4825 L 197.65725,322.4825 L 197.65725,320.4475 L 204.10975,320.4475 L 204.10975,329.865"
       id="path113"
       style="fill:#005531;fill-opacity:1;fill-rule:nonzero;stroke:none" />
    <path
       d="M 217.57099,322.59875 L 215.65224,316.96125 C 215.21724,315.68125 214.92599,314.51875 214.63474,313.385 L 214.57724,313.385 C 214.28599,314.5475 213.96724,315.74 213.58849,316.93125 L 211.67099,322.59875 L 217.57099,322.59875 z M 211.14724,324.575 L 209.11224,330.7375 L 206.49599,330.7375 L 213.15349,311.1475 L 216.20474,311.1475 L 222.88974,330.7375 L 220.18724,330.7375 L 218.09474,324.575 L 211.14724,324.575"
       id="path117"
       style="fill:#005531;fill-opacity:1;fill-rule:nonzero;stroke:none" />
    <path
       d="M 229.46099,320.33125 L 232.04724,320.33125 C 234.75099,320.33125 236.46599,318.85 236.46599,316.61125 C 236.46599,314.0825 234.63474,312.9775 231.96099,312.94875 C 230.73974,312.94875 229.86849,313.065 229.46099,313.18125 L 229.46099,320.33125 z M 226.93224,311.40875 C 228.21099,311.14625 230.04224,311.00125 231.78724,311.00125 C 234.48974,311.00125 236.23349,311.495 237.45474,312.6 C 238.44224,313.4725 238.99474,314.80875 238.99474,316.32125 C 238.99474,318.9075 237.36724,320.6225 235.30349,321.32 L 235.30349,321.4075 C 236.81474,321.93 237.71599,323.325 238.18099,325.36 C 238.82099,328.0925 239.28599,329.98125 239.69224,330.7375 L 237.07599,330.7375 C 236.75724,330.15625 236.32099,328.5 235.76849,326.0575 C 235.18724,323.355 234.14099,322.3375 231.84474,322.25 L 229.46099,322.25 L 229.46099,330.7375 L 226.93224,330.7375 L 226.93224,311.40875"
       id="path121"
       style="fill:#005531;fill-opacity:1;fill-rule:nonzero;stroke:none" />
    <path
       d="M 247.13474,313.29751 L 241.17599,313.29751 L 241.17599,311.14751 L 255.68099,311.14751 L 255.68099,313.29751 L 249.69224,313.29751 L 249.69224,330.73751 L 247.13474,330.73751 L 247.13474,313.29751"
       id="path125"
       style="fill:#005531;fill-opacity:1;fill-rule:nonzero;stroke:none" />
    <path
       d="M 268.58725,321.55249 L 260.97225,321.55249 L 260.97225,328.61624 L 269.45975,328.61624 L 269.45975,330.73749 L 258.4435,330.73749 L 258.4435,311.14749 L 269.0235,311.14749 L 269.0235,313.26874 L 260.97225,313.26874 L 260.97225,319.45999 L 268.58725,319.45999 L 268.58725,321.55249"
       id="path129"
       style="fill:#005531;fill-opacity:1;fill-rule:nonzero;stroke:none" />
    <path
       d="M 272.74599,330.7375 L 272.74599,311.1475 L 275.50724,311.1475 L 281.78599,321.05875 C 283.23849,323.355 284.37224,325.41875 285.30224,327.42375 L 285.36099,327.395 C 285.12849,324.77875 285.06974,322.395 285.06974,319.34375 L 285.06974,311.1475 L 287.45349,311.1475 L 287.45349,330.7375 L 284.89599,330.7375 L 278.67599,320.79625 C 277.30974,318.6175 276.00099,316.37875 275.01349,314.25625 L 274.92599,314.28625 C 275.07099,316.75625 275.12974,319.11125 275.12974,322.36625 L 275.12974,330.7375 L 272.74599,330.7375"
       id="path133"
       style="fill:#005531;fill-opacity:1;fill-rule:nonzero;stroke:none" />
    <path
       d="M 291.11849,323.82 L 298.29724,323.82 L 298.29724,321.93125 L 291.11849,321.93125 L 291.11849,323.82 z"
       id="path135"
       style="fill:#005531;fill-opacity:1;fill-rule:nonzero;stroke:none" />
    <path
       d="M 315.47598,330.09875 C 314.54598,330.56375 312.68598,331.0575 310.30098,331.0575 C 304.77973,331.0575 300.62223,327.54 300.62223,321.1175 C 300.62223,314.98375 304.77973,310.8275 310.85473,310.8275 C 313.29598,310.8275 314.83598,311.35125 315.50473,311.7 L 314.89473,313.76375 C 313.93473,313.2975 312.56973,312.95 310.94223,312.95 C 306.34973,312.95 303.29848,315.885 303.29848,321.03 C 303.29848,325.82625 306.05848,328.90625 310.82473,328.90625 C 312.36598,328.90625 313.93473,328.58625 314.95348,328.09375 L 315.47598,330.09875"
       id="path139"
       style="fill:#005531;fill-opacity:1;fill-rule:nonzero;stroke:none" />
    <path
       d="M 329.371,321.55249 L 321.75725,321.55249 L 321.75725,328.61624 L 330.2435,328.61624 L 330.2435,330.73749 L 319.22725,330.73749 L 319.22725,311.14749 L 329.8085,311.14749 L 329.8085,313.26874 L 321.75725,313.26874 L 321.75725,319.45999 L 329.371,319.45999 L 329.371,321.55249"
       id="path143"
       style="fill:#005531;fill-opacity:1;fill-rule:nonzero;stroke:none" />
    <path
       d="M 334.11099,330.7375 L 334.11099,311.1475 L 336.87224,311.1475 L 343.15099,321.05875 C 344.60599,323.355 345.73724,325.41875 346.66849,327.42375 L 346.72599,327.395 C 346.49349,324.77875 346.43724,322.395 346.43724,319.34375 L 346.43724,311.1475 L 348.81849,311.1475 L 348.81849,330.7375 L 346.26099,330.7375 L 340.04099,320.79625 C 338.67474,318.6175 337.36849,316.37875 336.37974,314.25625 L 336.29224,314.28625 C 336.43599,316.75625 336.49474,319.11125 336.49474,322.36625 L 336.49474,330.7375 L 334.11099,330.7375"
       id="path147"
       style="fill:#005531;fill-opacity:1;fill-rule:nonzero;stroke:none" />
    <path
       d="M 356.37598,313.29751 L 350.41848,313.29751 L 350.41848,311.14751 L 364.92348,311.14751 L 364.92348,313.29751 L 358.93473,313.29751 L 358.93473,330.73751 L 356.37598,330.73751 L 356.37598,313.29751"
       id="path151"
       style="fill:#005531;fill-opacity:1;fill-rule:nonzero;stroke:none" />
    <path
       d="M 377.83099,321.55249 L 370.21349,321.55249 L 370.21349,328.61624 L 378.70224,328.61624 L 378.70224,330.73749 L 367.68724,330.73749 L 367.68724,311.14749 L 378.26599,311.14749 L 378.26599,313.26874 L 370.21349,313.26874 L 370.21349,319.45999 L 377.83099,319.45999 L 377.83099,321.55249"
       id="path155"
       style="fill:#005531;fill-opacity:1;fill-rule:nonzero;stroke:none" />
    <path
       d="M 384.51723,320.33125 L 387.10348,320.33125 C 389.80848,320.33125 391.52098,318.85 391.52098,316.61125 C 391.52098,314.0825 389.69098,312.9775 387.01723,312.94875 C 385.79723,312.94875 384.92473,313.065 384.51723,313.18125 L 384.51723,320.33125 z M 381.98723,311.40875 C 383.26723,311.14625 385.09848,311.00125 386.84223,311.00125 C 389.54598,311.00125 391.28973,311.495 392.50973,312.6 C 393.49973,313.4725 394.05098,314.80875 394.05098,316.32125 C 394.05098,318.9075 392.42348,320.6225 390.35973,321.32 L 390.35973,321.4075 C 391.87098,321.93 392.77223,323.325 393.23723,325.36 C 393.87723,328.0925 394.34098,329.98125 394.74848,330.7375 L 392.13098,330.7375 C 391.81348,330.15625 391.37598,328.5 390.82473,326.0575 C 390.24348,323.355 389.19723,322.3375 386.90098,322.25 L 384.51723,322.25 L 384.51723,330.7375 L 381.98723,330.7375 L 381.98723,311.40875"
       id="path159"
       style="fill:#005531;fill-opacity:1;fill-rule:nonzero;stroke:none" />
  </g>
</svg>
